<svg width="685" height="605" viewBox="0 0 685 605" fill="none" xmlns="http://www.w3.org/2000/svg">
<path d="M518.991 458.158L509.796 431.185L494.442 436.416L463.081 344.396L428.118 356.308L428.223 356.621L416.946 405.299L400.901 474.549L410.261 495.215L443.275 483.965L455.293 479.868L468.672 475.307L479.595 507.365L514.559 495.453L503.635 463.395L518.991 458.158ZM455.417 449.717L447.486 452.421L432.297 457.597L442.664 406.124L443.639 401.853L459.477 448.332L455.417 449.717Z" fill="#9DC2E7"/>
<path opacity="0.25" d="M503.635 463.395L514.559 495.452L492.289 485.926L456.696 357.682L443.639 401.854L437.593 426.873L416.947 405.297L428.224 356.62L428.119 356.307L463.081 344.396L494.441 436.417L509.795 431.185L518.991 458.158L503.635 463.395Z" fill="#010101"/>
<path opacity="0.25" d="M455.293 479.868L443.275 483.965L445.041 459.198V454.683L447.486 452.421L449.059 450.968L455.416 449.718C455.417 449.718 455.023 467.91 455.293 479.868Z" fill="#010101"/>
<path d="M455.419 449.717C455.419 449.717 452.415 445.945 447.171 446.381C441.927 446.817 439.001 448.784 438.825 454.246C438.649 459.709 439.952 487.238 438.755 498.163C437.558 509.088 445.006 510.18 445.433 502.096C445.861 494.012 442.696 468.667 445.042 464.516C447.39 460.365 445.961 469.104 448.423 471.945C450.886 474.785 453.507 469.76 450.886 462.987C448.263 456.213 455.419 449.717 455.419 449.717Z" fill="url(#paint0_linear_2060_22216)"/>
<path d="M135.242 408.93C134.344 408.93 133.679 408.881 133.392 408.761C133.057 408.62 132.035 408.194 123.113 392.268L124.717 391.37C128.049 397.317 133.102 405.973 134.172 407.08C135.143 407.237 140.479 406.865 145.207 406.39L145.392 408.22C142.415 408.518 137.847 408.93 135.242 408.93Z" fill="#F26647"/>
<path d="M167.585 416.653V417.186C167.585 417.186 167.098 427.295 159.53 426.859C159.511 426.859 159.493 426.854 159.474 426.854C154.794 426.551 149.001 424.367 145.117 422.745C142.676 421.724 140.984 420.924 140.796 420.956C140.304 421.034 146.528 446.927 146.445 448.402C146.436 448.6 146.39 448.811 146.321 449.028C145.88 450.43 144.34 452.112 143.416 452.251C143.319 452.265 143.122 452.085 142.842 451.735C140.028 448.237 128.889 427.917 128.585 421.282C128.259 413.991 131.945 409.6 136.943 408.763C140.63 408.147 151.411 409.632 156.812 410.455C158.73 410.749 159.966 410.956 159.966 410.956L167.585 416.653Z" fill="#0A2533"/>
<path opacity="0.25" d="M146.445 448.402C146.436 448.6 146.39 448.811 146.321 449.028C145.88 450.43 144.34 452.112 143.416 452.251C143.319 452.265 143.122 452.085 142.842 451.735C146.805 446.14 136.446 418.901 138.699 418.823C139.811 418.786 142.271 420.676 145.117 422.745C142.676 421.724 140.984 420.924 140.796 420.956C140.303 421.034 146.528 446.926 146.445 448.402Z" fill="#010101"/>
<path opacity="0.25" d="M167.585 416.653V417.186C167.585 417.186 167.098 427.295 159.53 426.859C161.019 425.669 161.295 423.572 161.184 421.034C161.056 418.096 158.338 413.067 156.812 410.456C158.73 410.75 159.966 410.957 159.966 410.957L167.585 416.653Z" fill="#010101"/>
<path d="M151.479 383.459C151.227 383.855 151.061 384.186 151.061 384.438C151.061 384.438 151.052 384.423 151.034 384.392C150.946 384.236 150.629 383.689 150.221 383.054C149.531 381.988 148.579 380.663 148.004 380.502C147.08 380.249 144.621 383.356 141.297 383.605C141.076 383.625 140.856 383.628 140.63 383.62C136.971 383.454 133.09 378.264 136.207 372.149C137.297 374.388 139.536 374.443 139.536 374.443C139.536 374.443 138.17 374.168 138.12 372.475C142.105 373.183 144.18 370.181 147.623 371.275C151.061 372.364 150.846 374.442 150.846 374.442C150.846 374.442 153.466 373.403 154.284 376.681C154.941 379.303 152.491 381.887 151.479 383.459Z" fill="#0A2533"/>
<path d="M151.034 384.393C150.8 385.22 150.353 386.122 149.751 386.852C149.021 387.745 148.055 388.397 146.965 388.37C144.639 388.315 142.326 385.193 141.297 383.606C144.621 383.358 147.08 380.251 148.004 380.503C148.579 380.664 149.53 381.988 150.221 383.055C150.628 383.69 150.946 384.237 151.034 384.393Z" fill="url(#paint1_linear_2060_22216)"/>
<path d="M154.394 384.709C154.394 384.709 152.647 388.7 151.99 387.826C151.636 387.353 150.615 387.041 149.751 386.851C150.354 386.121 150.8 385.219 151.034 384.392C151.053 384.423 151.061 384.438 151.061 384.438C151.061 384.185 151.227 383.854 151.479 383.459C152.748 384.416 154.394 384.709 154.394 384.709Z" fill="url(#paint2_linear_2060_22216)"/>
<path d="M166.683 418.414C163.897 418.005 156.362 409.812 156.362 406.286C156.362 405.789 156.307 405.237 156.215 404.636C155.636 400.967 153.517 395.588 152.634 391.786C151.609 387.363 153.084 385.708 153.084 385.708C156.514 379.81 164.276 391.501 168.703 400.875L168.708 400.88C170.197 404.038 171.182 406.971 171.273 408.935C171.59 415.572 169.469 418.823 166.683 418.414Z" fill="#5462AD"/>
<path opacity="0.25" d="M166.683 418.414C163.897 418.005 156.362 409.812 156.362 406.286C156.362 405.789 156.307 405.237 156.215 404.636L156.197 403.064L158.927 388.756C158.927 388.756 162.697 393.239 163.299 401.266C163.897 409.293 172.735 411.04 168.707 400.88C170.196 404.038 171.181 406.971 171.272 408.935C171.59 415.572 169.469 418.823 166.683 418.414Z" fill="#010101"/>
<path d="M160.84 400.718C160.767 400.781 160.638 400.832 160.468 400.879C159.176 401.236 155.411 401.182 153.843 400.874C153.609 400.828 153.42 400.773 153.301 400.718C152.267 400.226 153.301 399.022 152.975 396.893C152.648 394.76 151.829 388.535 154.997 386.622C158.311 384.622 160.729 392.193 160.84 395.964C160.951 399.735 161.553 400.116 160.84 400.718Z" fill="#5462AD"/>
<path d="M160.467 400.879C160.467 400.879 160.316 410.087 158.559 414.432C158.559 414.437 158.559 414.437 158.559 414.441C158.012 415.793 157.309 416.671 156.403 416.653C152.592 416.57 144.032 407.518 143.251 407.187C142.474 406.86 138.58 407.435 138.704 406.86C138.828 406.286 140.345 405.016 141.981 404.405C143.623 403.79 143.333 404.157 153.861 408.994C153.718 408.065 153.778 404.047 153.824 401.771C153.829 401.426 153.839 401.123 153.843 400.875C155.411 401.182 159.175 401.237 160.467 400.879Z" fill="url(#paint3_linear_2060_22216)"/>
<path d="M149.586 454.626C149.853 456.267 138.828 467.489 139.402 464.542C139.972 461.591 143.416 452.249 143.416 452.249C144.34 452.11 145.88 450.429 146.321 449.026C147.223 450.589 149.361 453.265 149.586 454.626Z" fill="#5462AD"/>
<path opacity="0.25" d="M159.529 420.162C159.529 420.162 141.832 416.839 138.336 418.446C134.84 420.052 144.732 448.019 144.732 448.019" stroke="white" stroke-width="0.4597" stroke-miterlimit="10"/>
<path opacity="0.25" d="M158.559 414.432C158.895 412.583 159.148 407.209 158.219 405.085C157.594 403.65 155.268 402.418 153.823 401.771C153.828 401.426 153.838 401.123 153.842 400.875C155.41 401.183 159.175 401.237 160.467 400.88C160.467 400.879 160.316 410.087 158.559 414.432Z" fill="#010101"/>
<path d="M444.568 352.151C444.21 353.53 443.612 355.305 442.683 357.681C441.359 361.088 439.359 365.731 436.412 372.204C436.339 375.492 435.291 396.46 435.006 401.287C434.969 401.876 434.946 402.225 434.937 402.271C434.896 402.482 434.137 402.887 433.31 403.094C432.528 403.296 431.692 403.323 431.332 402.845C430.592 401.862 425.595 382.032 425.352 377.363C425.104 372.692 424.86 373.758 430.592 355.162C429.199 355.815 420.17 355.571 420.17 355.571C420.17 355.571 421.825 378.346 421.834 378.511C421.834 378.534 421.82 378.589 421.788 378.667C421.683 378.98 421.351 379.675 420.993 380.024C420.832 380.184 420.666 380.276 420.514 380.23C420.427 380.208 420.215 380.014 419.908 379.688C418.175 377.848 413.421 371.661 410.846 365.891C407.816 359.091 407.075 354.337 409.945 349.588C412.814 344.835 427.341 344.471 427.341 344.471C428.261 344.728 430.375 344.981 432.467 345.478C433.083 345.621 433.699 345.791 434.279 345.984C437.461 347.041 443.524 348.383 444.83 347.63C445.12 348.644 445.184 349.83 444.568 352.151Z" fill="#6561AB"/>
<path d="M456.609 336.318C456.034 336.644 449.359 336.396 444.848 334.676C444.871 335.471 444.972 336.722 445.087 338.143C445.267 340.382 445.474 343.044 445.423 344.984C445.395 346.368 445.235 347.388 444.848 347.623C444.843 347.628 444.839 347.632 444.829 347.632C444.136 348.032 442.103 347.839 439.869 347.416C438.425 347.14 436.899 346.768 435.598 346.395C435.124 346.257 434.679 346.12 434.279 345.986C431.723 345.131 428.533 344.804 427.341 344.473C427.042 344.39 426.872 344.312 426.862 344.22C426.826 343.769 427.97 342.749 428.508 341.682C428.572 341.549 428.659 341.351 428.756 341.098C429.193 339.981 429.878 337.866 430.209 336.519C430.406 335.724 430.48 335.2 430.306 335.291C429.773 335.576 426.618 341.475 426.25 341.475C426.122 341.475 425.487 341.112 424.733 340.601C423.464 339.741 421.869 338.477 421.832 337.875C421.823 337.792 421.846 337.723 421.906 337.668C422.646 336.969 428.296 327.466 430.346 325.439C431.307 324.482 432.443 323.908 433.367 323.568C434.401 323.182 435.183 323.094 435.183 323.094C436.401 323.052 437.628 323.214 438.824 323.517C442.888 324.533 446.617 327.099 448.741 328.367C451.485 330.004 453.37 329.554 454.064 329.963C454.765 330.378 457.178 335.987 456.609 336.318Z" fill="#F26647"/>
<path d="M445.423 344.984C441.644 345.03 433.244 344.695 428.757 341.1C429.194 339.983 429.879 337.868 430.21 336.521C430.21 336.521 439.078 339.21 445.087 338.144C445.267 340.383 445.474 343.044 445.423 344.984Z" fill="#F69181"/>
<path opacity="0.25" d="M438.826 323.519C438.68 325.091 438.123 326.783 436.412 326.65C433.999 326.462 433.479 324.489 433.369 323.57C434.403 323.184 435.185 323.096 435.185 323.096C436.403 323.054 437.63 323.215 438.826 323.519Z" fill="#010101"/>
<path d="M437.805 320.093C437.805 320.093 437.396 318.415 436.573 317.551C435.907 318.636 433.337 319.192 431.355 319.335C430.417 319.404 429.608 319.381 429.199 319.275C427.806 313.864 432.15 311.491 434.569 311.326C436.982 311.16 439.157 312.958 438.5 315.703C440.669 317.841 437.805 320.093 437.805 320.093Z" fill="#321212"/>
<path d="M437.805 320.093C437.681 320.452 437.488 321.082 437.157 321.67H437.152C436.61 322.649 435.7 323.518 434.123 322.879C434.068 322.856 434.013 322.833 433.962 322.806C432.634 322.203 431.944 321.031 431.595 320.107C431.485 319.817 431.407 319.551 431.356 319.335C433.337 319.192 435.908 318.636 436.574 317.551C436.611 317.593 436.648 317.634 436.684 317.675C437.433 318.567 437.805 320.093 437.805 320.093Z" fill="url(#paint4_linear_2060_22216)"/>
<path d="M437.598 324.272C437.355 325.789 434.854 325.707 434.582 324.723C434.439 324.213 434.278 323.721 434.154 323.362C434.044 323.027 433.961 322.81 433.961 322.81V322.806C434.012 322.833 434.067 322.856 434.122 322.879C435.699 323.518 436.609 322.65 437.151 321.67H437.156C436.986 322.01 437.441 322.438 437.593 323.242C437.649 323.532 437.663 323.873 437.598 324.272Z" fill="url(#paint5_linear_2060_22216)"/>
<path d="M424.611 384.329C424.367 386.214 414.616 393.588 414.782 392.278C414.942 390.967 419.908 379.69 419.908 379.69C420.216 380.016 420.428 380.21 420.514 380.232C421.006 380.375 421.631 379.124 421.787 378.669C423.098 380.315 424.831 382.646 424.611 384.329Z" fill="#262166"/>
<path d="M431.331 418.198C429.037 413.278 431.331 402.846 431.331 402.846C432.067 403.83 434.853 402.681 434.935 402.272C434.945 402.226 434.967 401.876 435.004 401.288C435.004 401.288 435.372 406.286 435.809 410.52C436.246 414.754 433.626 423.112 431.331 418.198Z" fill="#262166"/>
<path opacity="0.25" d="M430.591 355.163C429.198 355.816 420.169 355.573 420.169 355.573C420.169 355.573 421.824 378.347 421.833 378.512C421.833 378.535 421.819 378.59 421.787 378.668C421.682 378.981 421.35 379.676 420.992 380.025C419.328 372.232 416.009 357.291 418.656 354.726C422.045 351.448 431.221 350.574 431.354 351.291C431.488 352.013 430.591 355.163 430.591 355.163Z" fill="#010101"/>
<path d="M424.095 344.4C423.962 344.676 423.893 344.906 423.935 345.058C424.132 345.821 423.084 355.379 423.466 356.363C423.847 357.347 424.068 360.459 423.847 362.427C423.626 364.395 419.531 365.595 419.531 363.903C419.531 362.207 420.023 358.221 420.188 356.69C420.353 355.164 418.823 344.102 419.232 342.571C419.499 341.573 420.524 339.882 421.204 338.829C421.567 338.264 421.834 337.877 421.834 337.877C421.895 338.837 425.917 341.477 426.252 341.477C426.251 341.476 424.633 343.288 424.095 344.4Z" fill="url(#paint6_linear_2060_22216)"/>
<path opacity="0.25" d="M444.568 352.151C442.761 352.018 440.729 351.227 439.313 349.806C437.667 348.16 434.922 346.634 432.467 345.48C433.083 345.623 433.699 345.793 434.279 345.986C437.461 347.043 443.524 348.385 444.83 347.632C445.12 348.644 445.184 349.83 444.568 352.151Z" fill="#010101"/>
<path opacity="0.25" d="M442.683 357.682C441.359 361.089 439.359 365.732 436.412 372.205C436.339 375.493 435.291 396.461 435.006 401.288C434.969 401.877 434.946 402.226 434.937 402.272C434.896 402.483 434.137 402.888 433.31 403.095C433.498 396.024 433.25 380.632 434.446 376.053C435.874 370.573 442.283 358.436 442.683 357.682Z" fill="#010101"/>
<path opacity="0.25" d="M435.598 346.396C435.124 346.258 434.679 346.121 434.279 345.987C431.723 345.132 428.533 344.805 427.341 344.474C427.042 344.391 426.872 344.313 426.862 344.221C426.826 343.77 427.97 342.75 428.508 341.683C429.041 340.616 430.839 335.003 430.306 335.292C429.773 335.577 426.618 341.476 426.25 341.476C426.122 341.476 425.487 341.113 424.733 340.602C424.811 340.469 424.898 340.335 424.995 340.193C426.959 337.297 430.182 333.693 430.728 330.58C431.165 328.286 431.822 329.596 431.711 332.548C431.613 335.197 431.47 343.307 435.598 346.396Z" fill="#010101"/>
<path opacity="0.25" d="M444.848 347.623C444.843 347.628 444.839 347.632 444.829 347.632C444.136 348.032 442.103 347.839 439.869 347.416C443.864 343.412 441.684 332.566 442.31 333.123C443.045 333.776 444.847 334.677 444.847 334.677C444.931 337.628 446.122 346.846 444.848 347.623Z" fill="#010101"/>
<path opacity="0.25" d="M426.251 341.476C426.251 341.476 424.633 343.288 424.095 344.4C424.081 344.156 424.064 343.931 424.04 343.729C423.916 342.557 422.091 340.009 421.203 338.828C421.566 338.263 421.833 337.876 421.833 337.876C421.894 338.837 425.916 341.476 426.251 341.476Z" fill="#010101"/>
<path opacity="0.25" d="M436.683 317.675C435.7 319.85 432.808 320.102 431.594 320.107C431.484 319.817 431.406 319.551 431.355 319.335C433.336 319.192 435.907 318.636 436.573 317.551C436.61 317.593 436.647 317.634 436.683 317.675Z" fill="#010101"/>
<path opacity="0.25" d="M437.593 323.243C437.409 323.386 437.185 323.492 436.904 323.556C435.585 323.855 434.656 323.598 434.155 323.363C434.045 323.028 433.962 322.811 433.962 322.811V322.807C434.013 322.834 434.068 322.857 434.123 322.88C435.7 323.519 436.61 322.651 437.152 321.671H437.157C436.987 322.011 437.442 322.438 437.593 323.243Z" fill="#010101"/>
<path d="M451.081 -33V331" stroke="#0A2533" stroke-width="0.9195" stroke-miterlimit="10"/>
<path d="M459.27 333.394C459.261 333.449 459.248 333.504 459.238 333.555C458.696 336.024 456.719 336.286 456.346 336.125C455.974 335.964 454.99 334.833 454.13 330.848C454.111 330.769 454.098 330.691 454.079 330.609C454.079 330.609 452.222 325.846 451.349 323.556C449.193 322.278 448.784 322.798 448.48 321.322C448.181 319.846 449.138 317.938 449.685 317.662C450.232 317.391 452.687 319.685 453.018 320.531C453.344 321.376 459.762 330.773 459.27 333.394Z" fill="url(#paint7_linear_2060_22216)"/>
<path opacity="0.25" d="M459.238 333.555C458.696 336.024 456.719 336.286 456.346 336.125C455.974 335.964 454.99 334.833 454.13 330.848C454.677 331.955 455.519 333.39 456.443 333.983C457.458 334.63 458.599 334.424 459.238 333.555Z" fill="#010101"/>
<path d="M386.853 462.622L381.584 435.714C377.686 415.812 370.169 401.294 359.034 392.153C347.894 383.018 334.135 380.053 317.754 383.262C301.373 386.471 289.756 394.369 282.91 406.951C276.06 419.539 274.589 435.818 278.501 455.79L283.788 482.8C287.673 502.633 295.181 517.119 306.32 526.254C311.023 530.111 316.2 532.869 321.85 534.521C329.578 536.788 338.194 536.985 347.696 535.127C352.62 534.166 357.117 532.773 361.176 530.952C370.572 526.741 377.661 520.245 382.443 511.455C389.294 498.868 390.761 482.588 386.853 462.622ZM353.963 498.739C352.161 504.257 348.35 507.585 342.529 508.725C336.502 509.906 331.605 508.214 327.827 503.645C325.252 500.532 323.05 495.912 321.224 489.784C321.224 489.779 321.224 489.774 321.224 489.774C321.22 489.765 321.22 489.755 321.215 489.742C320.369 486.901 319.606 483.733 318.925 480.244L311.529 442.468C309.796 432.546 309.791 424.887 311.51 419.489C313.23 414.093 317.036 410.814 322.925 409.665C327.417 408.782 331.292 409.541 334.547 411.932H334.552C335.66 412.75 336.698 413.752 337.664 414.948C341.466 419.651 344.408 427.32 346.486 437.944L353.644 474.498C355.66 485.14 355.766 493.217 353.963 498.739Z" fill="#F26647"/>
<path opacity="0.25" d="M356.607 503.787C358.125 506.123 360.142 522.002 361.177 530.953C357.117 532.774 352.62 534.167 347.697 535.128C338.195 536.985 329.579 536.788 321.851 534.522C322.167 533.809 322.457 533.064 322.705 532.301C327.528 517.566 321.501 490.98 321.225 489.784C323.05 495.912 325.252 500.532 327.828 503.645C331.606 508.214 336.503 509.906 342.53 508.725C348.35 507.584 352.162 504.256 353.964 498.739C355.767 493.218 355.66 485.14 353.647 474.497L346.489 437.943C344.411 427.319 341.468 419.65 337.667 414.947C336.701 413.752 335.663 412.75 334.555 411.931C346.182 414.211 355.625 450.209 359.56 467.574C363.49 484.942 363.821 492.974 356.607 503.787Z" fill="#010101"/>
<path d="M323.79 496.847C323.79 496.847 324.544 498.818 328.504 499.91C332.465 501.002 336.179 494.876 338.801 496.847C341.423 498.818 345.619 506.987 349.311 505.743C353.003 504.499 354.095 524.163 352.348 526.348C350.6 528.533 349.343 510.873 344.728 511.401C340.112 511.927 343.608 525.255 340.986 527.659C338.364 530.063 339.457 521.76 336.617 520.23C333.776 518.701 339.676 587.088 335.305 588.18C330.935 589.273 328.095 585.121 329.843 570.483C331.591 555.845 329.405 505.373 326.783 502.751C324.163 500.129 324.327 499.637 323.79 496.847Z" fill="#6561AB"/>
<path d="M323.081 -33V392" stroke="#0A2533" stroke-width="0.9195" stroke-miterlimit="10"/>
<path d="M379.426 299.938C379.426 299.938 375.945 290.393 376.231 289.655C376.518 288.918 380.342 287.525 380.623 287.934C380.902 288.344 383.319 295.759 382.909 296.291C382.499 296.824 379.426 299.938 379.426 299.938Z" fill="#262166"/>
<path d="M321.498 287.421C321.498 287.421 323.623 288.302 324.568 290.597C325.512 292.891 325.144 284.616 325.144 284.616L324.12 283.674L321.498 287.421Z" fill="url(#paint8_linear_2060_22216)"/>
<path d="M320.392 287.421C320.392 287.421 323.055 289.408 323.506 289.531C323.956 289.654 324.826 284.451 324.433 283.632C324.038 282.812 322.595 281.993 321.658 282.526C320.72 283.059 319.956 287.099 320.392 287.421Z" fill="url(#paint9_linear_2060_22216)"/>
<path d="M327.48 288.016C327.48 288.016 325.359 283.1 324.433 282.24C323.506 281.38 321.786 282.486 321.662 282.936C321.538 283.386 323.72 283.714 324.433 284.452C325.145 285.19 323.219 290.638 325.063 292.564C326.906 294.489 327.48 288.016 327.48 288.016Z" fill="url(#paint10_linear_2060_22216)"/>
<path d="M376.805 301.043C376.805 301.043 378.689 300.019 379.099 299.486C379.508 298.953 378.771 296.946 379.959 295.103C381.147 293.259 383.687 293.792 384.301 296.004C384.916 298.216 383.319 301.002 382.581 301.862C381.843 302.722 376.805 306.327 376.805 306.327" fill="url(#paint11_linear_2060_22216)"/>
<path d="M378.154 305.317C378.099 305.644 377.763 306.204 377.111 306.968C374.72 309.763 368.132 315.234 356.257 321.487C356.023 322.443 355.839 323.418 355.701 324.392C355.26 327.504 355.268 330.649 355.416 333.476C355.452 334.203 355.498 334.911 355.549 335.591C355.766 338.57 356.06 341.03 355.982 342.455C355.945 343.08 355.835 343.503 355.624 343.691C355.357 343.925 355.076 344.137 354.782 344.326C348.851 348.133 338.056 342.446 336.309 340.735C336.171 340.602 336.088 340.491 336.071 340.413C335.767 339.264 336.944 338.036 337.601 336.068C337.711 335.733 337.822 334.983 337.932 333.958C338.245 330.928 338.516 325.508 338.613 321.43C338.668 318.827 338.654 316.773 338.535 316.23C338.53 316.221 338.53 316.211 338.53 316.211C338.204 314.873 328.259 299.849 325.276 294.525C324.729 293.555 324.417 292.907 324.434 292.723C324.544 291.523 326.838 287.262 327.33 287.317C327.413 287.326 327.717 287.708 328.176 288.342C330.48 291.542 336.677 301.215 337.817 302.447C338.884 303.601 344.313 309.316 346.64 311.766C347.297 312.451 347.706 312.883 347.706 312.883C348.966 312.86 350.229 312.745 351.494 312.548C362.67 310.824 373.653 302.999 376.527 300.824C377 300.466 377.254 300.263 377.254 300.263C377.254 300.263 378.402 303.787 378.154 305.317Z" fill="#F47920"/>
<path d="M350.264 317.827C346.452 318.443 346.441 313.483 346.639 311.768C347.296 312.453 347.705 312.885 347.705 312.885C348.965 312.862 350.228 312.747 351.493 312.55C351.967 314.504 351.587 317.616 350.264 317.827Z" fill="#C54527"/>
<path d="M354.123 307.193C353.383 307.639 352.417 307.791 351.185 307.473C350.238 307.234 349.129 306.715 347.837 305.836C347.837 305.836 346.816 307.064 346.734 309.316C344.03 306.981 343.373 304.645 345.667 303.785C344.725 299.689 346.734 298.829 350.09 298.627C353.451 298.42 354.228 301.863 356.236 301.781C356.358 303.617 355.838 306.177 354.123 307.193Z" fill="#262166"/>
<path d="M354.123 307.193C354.086 307.524 354.031 307.905 353.953 308.315C353.502 310.711 352.325 314.053 350.551 313.869C350.459 313.865 350.363 313.846 350.261 313.814C348.666 313.313 347.705 311.764 347.204 310.624C346.873 309.884 346.735 309.318 346.735 309.318C346.762 308.606 346.881 307.994 347.034 307.493C347.36 306.412 347.838 305.838 347.838 305.838C349.13 306.716 350.238 307.236 351.186 307.475C352.417 307.791 353.383 307.639 354.123 307.193Z" fill="url(#paint12_linear_2060_22216)"/>
<path d="M350.551 315.28C350.532 316.149 350.413 316.829 349.834 316.87C348.661 316.953 347.103 315.422 347.186 313.758C347.213 313.193 347.223 312.591 347.223 312.039C347.223 311.482 347.213 310.977 347.204 310.623C347.705 311.763 348.666 313.312 350.261 313.813C350.363 313.845 350.459 313.864 350.551 313.868C350.546 314.352 350.565 314.839 350.551 315.28Z" fill="url(#paint13_linear_2060_22216)"/>
<path d="M378.154 305.318C378.099 305.645 377.763 306.205 377.111 306.969C377.142 305.015 376.715 302.05 376.527 300.826C377 300.468 377.254 300.265 377.254 300.265C377.254 300.265 378.402 303.788 378.154 305.318Z" fill="#C54527"/>
<path d="M328.175 288.344C326.429 289.838 325.577 293.094 325.275 294.528C324.728 293.558 324.416 292.91 324.433 292.726C324.543 291.526 326.837 287.265 327.329 287.32C327.413 287.328 327.716 287.709 328.175 288.344Z" fill="#C54527"/>
<path d="M355.549 335.592C351.642 336.157 344.29 336.659 337.932 333.96C338.245 330.93 338.516 325.51 338.613 321.432C341.762 322.765 348.561 325.137 355.702 324.392C355.145 328.306 355.301 332.273 355.549 335.592Z" fill="#FCAF17"/>
<path opacity="0.25" d="M354.782 344.327C348.391 348.428 336.355 341.509 336.071 340.414C335.767 339.265 336.944 338.037 337.601 336.069C337.711 335.734 337.822 334.984 337.932 333.959C338.245 330.929 338.516 325.509 338.613 321.431C338.668 318.828 338.654 316.774 338.535 316.231C338.673 316.654 340.834 323.504 341.941 330.17C343.09 337.052 342.842 340.331 346.203 342.542C348.17 343.834 351.761 344.515 354.782 344.327Z" fill="#010101"/>
<path d="M369.386 363.245C369.386 366.086 359.115 381.828 356.988 385.059C356.744 385.432 356.606 385.639 356.606 385.639C356.606 385.639 355.282 385.487 354.192 385.119C353.434 384.856 352.786 384.498 352.786 384.002C352.786 383.9 352.805 383.744 352.837 383.537C353.2 381.344 355.457 373.409 358.354 362.918C356.828 361.061 346.121 353.958 346.121 353.958C346.121 353.958 346.116 353.967 346.111 353.985C345.647 355.056 330.784 389.426 329.096 392.631C329.036 392.746 328.994 392.819 328.967 392.852C328.204 393.836 325.036 393.942 324.816 391.868C324.816 391.864 324.816 391.864 324.816 391.859C323.906 383.171 331.399 356.964 334.889 345.375C335.514 343.297 336.01 341.688 336.309 340.736C338.056 342.446 348.851 348.133 354.782 344.327C355.076 344.138 355.357 343.927 355.624 343.692C355.835 343.504 355.945 343.081 355.982 342.456C356.092 342.575 356.208 342.704 356.322 342.842C360.458 347.572 369.386 360.509 369.386 363.245Z" fill="#9DC2E7"/>
<path d="M330.143 397.44C329.734 399.486 318.916 405.55 319.901 401.881C320.701 398.906 323.707 393.716 324.815 391.859C324.815 391.864 324.815 391.864 324.815 391.868C325.036 393.942 328.204 393.837 328.966 392.852C328.993 392.82 329.035 392.747 329.095 392.631C329.647 394.213 330.41 396.116 330.143 397.44Z" fill="#262166"/>
<path d="M360.542 395.637C359.719 396.047 349.071 391.95 349.315 390.557C349.563 389.164 352.836 383.537 352.836 383.537C352.804 383.744 352.785 383.9 352.785 384.002C352.785 385.201 356.605 385.639 356.605 385.639C356.605 385.639 356.743 385.432 356.987 385.059C357.462 389.312 361.31 395.252 360.542 395.637Z" fill="#262166"/>
<path opacity="0.25" d="M344.727 352.785C344.727 352.785 332.928 375.956 328.503 391.859" stroke="#010101" stroke-width="0.4597" stroke-miterlimit="10"/>
<path opacity="0.25" d="M347.513 352.785C347.513 352.785 360.622 361.388 361.115 362.781C361.606 364.174 354.314 383.538 354.314 383.538" stroke="#010101" stroke-width="0.4597" stroke-miterlimit="10"/>
<path opacity="0.25" d="M356.322 342.841C354.879 348.606 346.52 347.039 342.245 345.931C339.758 345.287 336.907 345.264 334.89 345.374C335.515 343.296 336.011 341.687 336.31 340.735C338.057 342.445 348.852 348.132 354.783 344.326C355.077 344.137 355.358 343.926 355.625 343.691C355.836 343.503 355.946 343.08 355.983 342.455C356.092 342.575 356.207 342.704 356.322 342.841Z" fill="#010101"/>
<path opacity="0.25" d="M354.192 385.121C353.434 384.858 352.786 384.5 352.786 384.004C352.786 383.902 352.805 383.746 352.837 383.539C353.2 381.346 355.457 373.411 358.354 362.92C356.828 361.063 346.121 353.96 346.121 353.96C346.121 353.96 346.994 351.013 347.978 350.793C348.961 350.577 360.322 360.351 361.577 362.374C362.684 364.151 354.947 378.661 354.192 385.121Z" fill="#010101"/>
<path opacity="0.25" d="M354.123 307.193C354.086 307.524 354.031 307.905 353.953 308.315C351.089 309.773 348.279 306.49 347.944 306.531C347.751 306.554 347.355 307.051 347.034 307.492C347.36 306.411 347.838 305.837 347.838 305.837C349.13 306.715 350.238 307.235 351.186 307.474C352.417 307.791 353.383 307.639 354.123 307.193Z" fill="#010101"/>
<path opacity="0.25" d="M350.551 315.28C348.661 314.82 347.617 312.926 347.223 312.039C347.223 311.482 347.213 310.977 347.204 310.623C347.705 311.763 348.666 313.312 350.261 313.813C350.363 313.845 350.459 313.864 350.551 313.868C350.546 314.352 350.565 314.839 350.551 315.28Z" fill="#010101"/>
<path opacity="0.25" d="M355.701 324.392C355.26 327.504 355.268 330.649 355.416 333.476C354.671 330.336 354.019 326.961 354.781 325.008C356.095 321.643 356.238 321.487 356.257 321.487C356.022 322.443 355.838 323.417 355.701 324.392Z" fill="#010101"/>
<path d="M237 -33L237 355" stroke="#0A2533" stroke-width="0.9195" stroke-miterlimit="10"/>
<path d="M263.716 355.742L228.344 349.664L228.289 349.981L150.174 437.929L148.561 459.914L159.765 461.84L179.157 465.173L205.187 469.647L207.661 470.07L205.799 480.915L204.935 485.932L202.089 502.505L225.112 506.463L237.462 508.583L243.033 476.148L258.572 478.814L263.261 451.519L247.722 448.853L263.716 355.742ZM219.559 400.81L212.345 442.775L203.716 441.29L184.843 438.05L195.293 425.577L197.684 422.722L217.609 398.94L220.427 395.75L219.559 400.81Z" fill="#6561AB"/>
<path opacity="0.25" d="M205.186 469.647L179.156 465.173C182.222 455.045 186.048 441.087 184.843 438.049L203.716 441.289C204.925 443.304 205.881 446.075 206.139 449.878C206.598 456.609 205.595 463.482 205.186 469.647Z" fill="#010101"/>
<path d="M185.97 438.245C185.97 438.245 188.808 434.307 195.199 435.537C201.59 436.767 202.082 444.633 199.296 453.318C196.51 462.003 195.855 492.318 197.165 502.15C198.477 511.982 197.657 516.571 194.544 516.898C191.431 517.226 189.955 505.099 191.758 496.579C193.561 488.058 193.397 480.192 190.447 481.503C187.497 482.815 189.955 486.092 188.48 489.041C187.005 491.99 182.581 490.188 182.745 484.616C182.909 479.044 191.818 442.835 185.97 438.245Z" fill="#9DC2E7"/>
<path opacity="0.25" d="M247.721 448.853L263.26 451.519L258.571 478.814L243.032 476.148L237.46 508.583L225.111 506.462L246.816 371.033L263.715 355.742L247.721 448.853Z" fill="#010101"/>
<path d="M296.631 322.623C300.161 322.623 303.022 319.761 303.022 316.232C303.022 312.702 300.161 309.841 296.631 309.841C293.102 309.841 290.24 312.702 290.24 316.232C290.24 319.761 293.102 322.623 296.631 322.623Z" fill="#F47920"/>
<path d="M518.992 403.839C522.521 403.839 525.383 400.977 525.383 397.448C525.383 393.918 522.521 391.057 518.992 391.057C515.462 391.057 512.601 393.918 512.601 397.448C512.601 400.977 515.462 403.839 518.992 403.839Z" fill="#6561AB"/>
<path d="M184.843 357.178C188.373 357.178 191.234 354.316 191.234 350.787C191.234 347.257 188.373 344.396 184.843 344.396C181.313 344.396 178.452 347.257 178.452 350.787C178.452 354.316 181.313 357.178 184.843 357.178Z" fill="#9DC2E7"/>
<path d="M290.242 552.621C293.771 552.621 296.633 549.76 296.633 546.23C296.633 542.7 293.771 539.839 290.242 539.839C286.712 539.839 283.851 542.7 283.851 546.23C283.851 549.76 286.712 552.621 290.242 552.621Z" fill="#F26647"/>
<path d="M482.457 337.935C483.819 337.935 484.922 336.831 484.922 335.47C484.922 334.108 483.819 333.005 482.457 333.005C481.096 333.005 479.992 334.108 479.992 335.47C479.992 336.831 481.096 337.935 482.457 337.935Z" fill="#F47920"/>
<path d="M294.166 376.318C295.528 376.318 296.631 375.214 296.631 373.853C296.631 372.491 295.528 371.388 294.166 371.388C292.805 371.388 291.701 372.491 291.701 373.853C291.701 375.214 292.805 376.318 294.166 376.318Z" fill="#9DC2E7"/>
<path d="M220.426 342.942C221.787 342.942 222.891 341.838 222.891 340.477C222.891 339.115 221.787 338.012 220.426 338.012C219.065 338.012 217.961 339.115 217.961 340.477C217.961 341.838 219.065 342.942 220.426 342.942Z" fill="#6561AB"/>
<path d="M553.904 205.386C553.904 205.386 544.053 195.554 525.382 199.487C506.71 203.42 493.587 232.916 479.993 239.47C466.398 246.025 439.597 265.38 437.594 281.921C463.777 260.118 473.609 269.622 490.651 267C507.693 264.378 509.004 244.386 533.585 245.042C558.165 245.697 584.384 276.239 608.964 259.166C633.544 242.093 662.385 221.773 639.115 205.059C615.845 188.345 568.652 213.907 553.904 205.386Z" fill="url(#paint14_linear_2060_22216)"/>
<path d="M155.055 271.839C155.055 271.839 152.491 285.518 166.268 298.72C180.044 311.922 211.804 306.126 224.883 313.656C237.962 321.186 269.06 332.406 283.85 324.731C251.079 315.404 253.383 301.925 241.607 289.329C229.832 276.734 212.583 286.925 199.263 266.257C185.943 245.588 196.378 206.713 168.418 196.042C140.457 185.371 107.412 173.012 106.731 201.654C106.05 230.296 153.775 254.854 155.055 271.839Z" fill="url(#paint15_linear_2060_22216)"/>
<path d="M630.921 350.262C630.921 350.262 590.938 394.13 582.416 445.564C573.895 496.999 532.909 493.721 518.99 517.973C505.07 542.225 471.898 544.192 456.694 554.024C441.49 563.856 406.851 546.814 400.901 554.024C394.952 561.234 431.971 572.378 479.992 573.033C528.013 573.688 537.188 536.327 579.794 531.083C622.4 525.839 665.005 507.486 680.081 438.005C695.158 368.526 669.594 331.343 630.921 350.262Z" fill="url(#paint16_linear_2060_22216)"/>
<path d="M53.8612 367.927C53.8612 367.927 93.8442 411.796 102.366 463.229C110.887 514.663 151.873 511.385 165.792 535.638C179.711 559.89 212.884 561.857 228.088 571.689C243.292 581.521 277.931 564.479 283.881 571.689C289.83 578.899 252.811 590.042 204.79 590.698C156.769 591.353 147.594 553.991 104.988 548.748C62.3832 543.504 19.7762 525.151 4.70119 455.671C-10.3758 386.191 15.1882 349.007 53.8612 367.927Z" fill="url(#paint17_linear_2060_22216)"/>
<defs>
<linearGradient id="paint0_linear_2060_22216" x1="443.703" y1="422.23" x2="451.568" y2="548.077" gradientUnits="userSpaceOnUse">
<stop stop-color="#FCAF17"/>
<stop offset="1" stop-color="#F47920"/>
</linearGradient>
<linearGradient id="paint1_linear_2060_22216" x1="145.722" y1="388.175" x2="146.623" y2="379.653" gradientUnits="userSpaceOnUse">
<stop stop-color="#FBC4AF"/>
<stop offset="1" stop-color="#EA8B69"/>
</linearGradient>
<linearGradient id="paint2_linear_2060_22216" x1="157.079" y1="385.325" x2="149.213" y2="385.898" gradientUnits="userSpaceOnUse">
<stop stop-color="#FBC4AF"/>
<stop offset="1" stop-color="#EA8B69"/>
</linearGradient>
<linearGradient id="paint3_linear_2060_22216" x1="146.782" y1="417.43" x2="153.992" y2="391.539" gradientUnits="userSpaceOnUse">
<stop stop-color="#FBC4AF"/>
<stop offset="1" stop-color="#EA8B69"/>
</linearGradient>
<linearGradient id="paint4_linear_2060_22216" x1="434.459" y1="322.502" x2="434.787" y2="315.006" gradientUnits="userSpaceOnUse">
<stop stop-color="#FBC4AF"/>
<stop offset="1" stop-color="#EA8B69"/>
</linearGradient>
<linearGradient id="paint5_linear_2060_22216" x1="435.913" y1="325.691" x2="435.668" y2="320.366" gradientUnits="userSpaceOnUse">
<stop stop-color="#FBC4AF"/>
<stop offset="1" stop-color="#EA8B69"/>
</linearGradient>
<linearGradient id="paint6_linear_2060_22216" x1="419.477" y1="365.892" x2="425.376" y2="327.547" gradientUnits="userSpaceOnUse">
<stop stop-color="#FBC4AF"/>
<stop offset="1" stop-color="#EA8B69"/>
</linearGradient>
<linearGradient id="paint7_linear_2060_22216" x1="452.481" y1="319.641" x2="457.07" y2="343.839" gradientUnits="userSpaceOnUse">
<stop stop-color="#FBC4AF"/>
<stop offset="1" stop-color="#EA8B69"/>
</linearGradient>
<linearGradient id="paint8_linear_2060_22216" x1="322.347" y1="283.947" x2="325.216" y2="290.043" gradientUnits="userSpaceOnUse">
<stop stop-color="#FBC4AF"/>
<stop offset="1" stop-color="#EA8B69"/>
</linearGradient>
<linearGradient id="paint9_linear_2060_22216" x1="317.998" y1="283.797" x2="325.126" y2="286.787" gradientUnits="userSpaceOnUse">
<stop stop-color="#FBC4AF"/>
<stop offset="1" stop-color="#EA8B69"/>
</linearGradient>
<linearGradient id="paint10_linear_2060_22216" x1="322.089" y1="281.502" x2="326.677" y2="291.252" gradientUnits="userSpaceOnUse">
<stop stop-color="#FBC4AF"/>
<stop offset="1" stop-color="#EA8B69"/>
</linearGradient>
<linearGradient id="paint11_linear_2060_22216" x1="387.423" y1="291.151" x2="374.396" y2="306.636" gradientUnits="userSpaceOnUse">
<stop stop-color="#FBC4AF"/>
<stop offset="1" stop-color="#EA8B69"/>
</linearGradient>
<linearGradient id="paint12_linear_2060_22216" x1="350.988" y1="314.755" x2="349.595" y2="298.531" gradientUnits="userSpaceOnUse">
<stop stop-color="#FBC4AF"/>
<stop offset="1" stop-color="#EA8B69"/>
</linearGradient>
<linearGradient id="paint13_linear_2060_22216" x1="348.605" y1="314.881" x2="349.261" y2="310.702" gradientUnits="userSpaceOnUse">
<stop stop-color="#FBC4AF"/>
<stop offset="1" stop-color="#EA8B69"/>
</linearGradient>
<linearGradient id="paint14_linear_2060_22216" x1="589.659" y1="225.209" x2="368.766" y2="276.336" gradientUnits="userSpaceOnUse">
<stop stop-color="white" stop-opacity="0"/>
<stop offset="1" stop-color="#9DC2E7"/>
</linearGradient>
<linearGradient id="paint15_linear_2060_22216" x1="151.261" y1="231.131" x2="318.049" y2="384.72" gradientUnits="userSpaceOnUse">
<stop stop-color="white" stop-opacity="0"/>
<stop offset="1" stop-color="#9DC2E7"/>
</linearGradient>
<linearGradient id="paint16_linear_2060_22216" x1="612.636" y1="448.908" x2="295.561" y2="522.297" gradientUnits="userSpaceOnUse">
<stop stop-color="white" stop-opacity="0"/>
<stop offset="1" stop-color="#9DC2E7"/>
</linearGradient>
<linearGradient id="paint17_linear_2060_22216" x1="72.1461" y1="466.57" x2="389.222" y2="539.959" gradientUnits="userSpaceOnUse">
<stop stop-color="white" stop-opacity="0"/>
<stop offset="1" stop-color="#9DC2E7"/>
</linearGradient>
</defs>
</svg>
