<svg width="24" height="24" viewBox="0 0 24 24" fill="none" xmlns="http://www.w3.org/2000/svg">
<path fill-rule="evenodd" clip-rule="evenodd" d="M23.8259 11.9948C23.8259 5.46062 18.5289 0.163635 11.9948 0.163635C5.46062 0.163635 0.163635 5.46062 0.163635 11.9948C0.163635 18.5289 5.46062 23.8259 11.9948 23.8259C11.1991 23.8259 10.4219 23.7468 9.67025 23.597V14.5886H7.74072V11.3719H9.67025V9.441C9.67025 6.81685 10.7596 5.25665 13.8549 5.25665H16.4318V8.47355H14.821C13.616 8.47355 13.5364 8.92283 13.5364 9.76173L13.532 11.3717H16.4499L16.1083 14.588H13.532V23.7266C13.0766 23.7857 12.6181 23.8185 12.159 23.8248C18.6174 23.7369 23.8259 18.4741 23.8259 11.9948Z" fill="url(#paint0_linear_393_11595)"/>
<defs>
<linearGradient id="paint0_linear_393_11595" x1="11.9948" y1="-0.0519399" x2="11.9948" y2="24.8349" gradientUnits="userSpaceOnUse">
<stop stop-color="#00B2FF"/>
<stop offset="1" stop-color="#006AFF"/>
</linearGradient>
</defs>
</svg>
