<svg width="24" height="24" viewBox="0 0 24 24" fill="none" xmlns="http://www.w3.org/2000/svg">
<path d="M8.00111 12C8.00111 9.79094 9.79141 7.99968 12.0005 7.99968C14.2095 7.99968 16.0008 9.79094 16.0008 12C16.0008 14.2091 14.2095 16.0003 12.0005 16.0003C9.79141 16.0003 8.00111 14.2091 8.00111 12ZM5.83862 12C5.83862 15.4032 8.59727 18.1619 12.0005 18.1619C15.4037 18.1619 18.1623 15.4032 18.1623 12C18.1623 8.5968 15.4037 5.83814 12.0005 5.83814C8.59727 5.83814 5.83862 8.5968 5.83862 12ZM16.9662 5.59382C16.9661 5.87863 17.0505 6.15707 17.2086 6.39394C17.3667 6.63081 17.5916 6.81547 17.8546 6.92457C18.1177 7.03366 18.4073 7.06229 18.6866 7.00684C18.966 6.95139 19.2226 6.81435 19.4241 6.61304C19.6255 6.41173 19.7628 6.15521 19.8185 5.8759C19.8741 5.59658 19.8457 5.30704 19.7368 5.04387C19.628 4.7807 19.4435 4.55573 19.2067 4.3974C18.97 4.23908 18.6916 4.15451 18.4068 4.1544H18.4062C18.0245 4.15458 17.6584 4.30627 17.3884 4.57616C17.1184 4.84605 16.9666 5.21207 16.9662 5.59382ZM7.15247 21.7677C5.98252 21.7144 5.34662 21.5196 4.92403 21.3549C4.36378 21.1368 3.96403 20.877 3.54374 20.4573C3.12346 20.0376 2.8633 19.6382 2.64615 19.078C2.48141 18.6556 2.28653 18.0195 2.23335 16.8495C2.17517 15.5846 2.16356 15.2047 2.16356 12.0001C2.16356 8.79552 2.17613 8.41661 2.23335 7.15066C2.28663 5.9807 2.48295 5.34586 2.64615 4.92221C2.86426 4.36195 3.12403 3.96221 3.54374 3.54192C3.96346 3.12163 4.36281 2.86147 4.92403 2.64432C5.34643 2.47958 5.98252 2.2847 7.15247 2.23152C8.41737 2.17334 8.79733 2.16173 12.0005 2.16173C15.2036 2.16173 15.5839 2.1743 16.8499 2.23152C18.0198 2.2848 18.6547 2.48112 19.0783 2.64432C19.6386 2.86147 20.0383 3.12221 20.4586 3.54192C20.8789 3.96163 21.1381 4.36195 21.3562 4.92221C21.521 5.34461 21.7158 5.9807 21.769 7.15066C21.8272 8.41661 21.8388 8.79552 21.8388 12.0001C21.8388 15.2047 21.8272 15.5836 21.769 16.8495C21.7157 18.0195 21.5199 18.6554 21.3562 19.078C21.1381 19.6382 20.8783 20.038 20.4586 20.4573C20.0389 20.8766 19.6386 21.1368 19.0783 21.3549C18.6559 21.5196 18.0198 21.7145 16.8499 21.7677C15.585 21.8259 15.205 21.8375 12.0005 21.8375C8.79589 21.8375 8.41698 21.8259 7.15247 21.7677ZM7.05311 0.072672C5.77564 0.130848 4.90272 0.333408 4.14038 0.630048C3.35088 0.936384 2.68253 1.34736 2.01466 2.01418C1.34679 2.68099 0.93687 3.3504 0.630535 4.1399C0.333896 4.90272 0.131336 5.77517 0.0731601 7.05264C0.0140243 8.33213 0.000488281 8.74118 0.000488281 12C0.000488281 15.2588 0.0140243 15.6679 0.0731601 16.9474C0.131336 18.2249 0.333896 19.0973 0.630535 19.8601C0.93687 20.6491 1.34689 21.3193 2.01466 21.9858C2.68243 22.6524 3.35088 23.0628 4.14038 23.37C4.90416 23.6666 5.77564 23.8692 7.05311 23.9273C8.33327 23.9855 8.74165 24 12.0005 24C15.2593 24 15.6683 23.9865 16.9478 23.9273C18.2254 23.8692 19.0977 23.6666 19.8605 23.37C20.6496 23.0628 21.3184 22.6526 21.9863 21.9858C22.6541 21.319 23.0632 20.6491 23.3704 19.8601C23.667 19.0973 23.8706 18.2248 23.9278 16.9474C23.9859 15.6669 23.9995 15.2588 23.9995 12C23.9995 8.74118 23.9859 8.33213 23.9278 7.05264C23.8696 5.77507 23.667 4.90224 23.3704 4.1399C23.0632 3.35088 22.6531 2.68205 21.9863 2.01418C21.3195 1.3463 20.6496 0.936384 19.8615 0.630048C19.0977 0.333408 18.2253 0.129888 16.9488 0.072672C15.6693 0.014496 15.2602 0 12.0014 0C8.74261 0 8.33327 0.013536 7.05311 0.072672Z" fill="url(#paint0_radial_393_11593)"/>
<path d="M8.00111 12C8.00111 9.79094 9.79141 7.99968 12.0005 7.99968C14.2095 7.99968 16.0008 9.79094 16.0008 12C16.0008 14.2091 14.2095 16.0003 12.0005 16.0003C9.79141 16.0003 8.00111 14.2091 8.00111 12ZM5.83862 12C5.83862 15.4032 8.59727 18.1619 12.0005 18.1619C15.4037 18.1619 18.1623 15.4032 18.1623 12C18.1623 8.5968 15.4037 5.83814 12.0005 5.83814C8.59727 5.83814 5.83862 8.5968 5.83862 12ZM16.9662 5.59382C16.9661 5.87863 17.0505 6.15707 17.2086 6.39394C17.3667 6.63081 17.5916 6.81547 17.8546 6.92457C18.1177 7.03366 18.4073 7.06229 18.6866 7.00684C18.966 6.95139 19.2226 6.81435 19.4241 6.61304C19.6255 6.41173 19.7628 6.15521 19.8185 5.8759C19.8741 5.59658 19.8457 5.30704 19.7368 5.04387C19.628 4.7807 19.4435 4.55573 19.2067 4.3974C18.97 4.23908 18.6916 4.15451 18.4068 4.1544H18.4062C18.0245 4.15458 17.6584 4.30627 17.3884 4.57616C17.1184 4.84605 16.9666 5.21207 16.9662 5.59382ZM7.15247 21.7677C5.98252 21.7144 5.34662 21.5196 4.92403 21.3549C4.36378 21.1368 3.96403 20.877 3.54374 20.4573C3.12346 20.0376 2.8633 19.6382 2.64615 19.078C2.48141 18.6556 2.28653 18.0195 2.23335 16.8495C2.17517 15.5846 2.16356 15.2047 2.16356 12.0001C2.16356 8.79552 2.17613 8.41661 2.23335 7.15066C2.28663 5.9807 2.48295 5.34586 2.64615 4.92221C2.86426 4.36195 3.12403 3.96221 3.54374 3.54192C3.96346 3.12163 4.36281 2.86147 4.92403 2.64432C5.34643 2.47958 5.98252 2.2847 7.15247 2.23152C8.41737 2.17334 8.79733 2.16173 12.0005 2.16173C15.2036 2.16173 15.5839 2.1743 16.8499 2.23152C18.0198 2.2848 18.6547 2.48112 19.0783 2.64432C19.6386 2.86147 20.0383 3.12221 20.4586 3.54192C20.8789 3.96163 21.1381 4.36195 21.3562 4.92221C21.521 5.34461 21.7158 5.9807 21.769 7.15066C21.8272 8.41661 21.8388 8.79552 21.8388 12.0001C21.8388 15.2047 21.8272 15.5836 21.769 16.8495C21.7157 18.0195 21.5199 18.6554 21.3562 19.078C21.1381 19.6382 20.8783 20.038 20.4586 20.4573C20.0389 20.8766 19.6386 21.1368 19.0783 21.3549C18.6559 21.5196 18.0198 21.7145 16.8499 21.7677C15.585 21.8259 15.205 21.8375 12.0005 21.8375C8.79589 21.8375 8.41698 21.8259 7.15247 21.7677ZM7.05311 0.072672C5.77564 0.130848 4.90272 0.333408 4.14038 0.630048C3.35088 0.936384 2.68253 1.34736 2.01466 2.01418C1.34679 2.68099 0.93687 3.3504 0.630535 4.1399C0.333896 4.90272 0.131336 5.77517 0.0731601 7.05264C0.0140243 8.33213 0.000488281 8.74118 0.000488281 12C0.000488281 15.2588 0.0140243 15.6679 0.0731601 16.9474C0.131336 18.2249 0.333896 19.0973 0.630535 19.8601C0.93687 20.6491 1.34689 21.3193 2.01466 21.9858C2.68243 22.6524 3.35088 23.0628 4.14038 23.37C4.90416 23.6666 5.77564 23.8692 7.05311 23.9273C8.33327 23.9855 8.74165 24 12.0005 24C15.2593 24 15.6683 23.9865 16.9478 23.9273C18.2254 23.8692 19.0977 23.6666 19.8605 23.37C20.6496 23.0628 21.3184 22.6526 21.9863 21.9858C22.6541 21.319 23.0632 20.6491 23.3704 19.8601C23.667 19.0973 23.8706 18.2248 23.9278 16.9474C23.9859 15.6669 23.9995 15.2588 23.9995 12C23.9995 8.74118 23.9859 8.33213 23.9278 7.05264C23.8696 5.77507 23.667 4.90224 23.3704 4.1399C23.0632 3.35088 22.6531 2.68205 21.9863 2.01418C21.3195 1.3463 20.6496 0.936384 19.8615 0.630048C19.0977 0.333408 18.2253 0.129888 16.9488 0.072672C15.6693 0.014496 15.2602 0 12.0014 0C8.74261 0 8.33327 0.013536 7.05311 0.072672Z" fill="url(#paint1_radial_393_11593)"/>
<defs>
<radialGradient id="paint0_radial_393_11593" cx="0" cy="0" r="1" gradientUnits="userSpaceOnUse" gradientTransform="translate(3.18903 24.1134) scale(31.3299 31.33)">
<stop offset="0.09" stop-color="#FA8F21"/>
<stop offset="0.78" stop-color="#D82D7E"/>
</radialGradient>
<radialGradient id="paint1_radial_393_11593" cx="0" cy="0" r="1" gradientUnits="userSpaceOnUse" gradientTransform="translate(14.5554 25.1886) scale(24.6923 24.6924)">
<stop offset="0.64" stop-color="#8C3AAA" stop-opacity="0"/>
<stop offset="1" stop-color="#8C3AAA"/>
</radialGradient>
</defs>
</svg>
