<svg width="24" height="24" viewBox="0 0 24 24" fill="none" xmlns="http://www.w3.org/2000/svg">
<path d="M0 3.03222C0 2.26201 0.270278 1.62659 0.810811 1.12598C1.35134 0.625338 2.05406 0.375031 2.91892 0.375031C3.76835 0.375031 4.45559 0.621479 4.98069 1.11442C5.52123 1.62276 5.79151 2.28511 5.79151 3.10154C5.79151 3.84093 5.52896 4.45708 5.00386 4.95002C4.46333 5.45835 3.7529 5.71252 2.87259 5.71252H2.84942C1.99999 5.71252 1.31275 5.45835 0.787645 4.95002C0.262541 4.44169 0 3.80241 0 3.03222ZM0.301158 23.25V7.81517H5.44402V23.25H0.301158ZM8.29344 23.25H13.4363V14.6314C13.4363 14.0923 13.4981 13.6764 13.6216 13.3837C13.8378 12.86 14.166 12.4171 14.6062 12.0551C15.0463 11.6931 15.5984 11.5121 16.2625 11.5121C17.9923 11.5121 18.8571 12.6751 18.8571 15.0011V23.25H24V14.4004C24 12.1206 23.4595 10.3915 22.3784 9.21308C21.2973 8.03467 19.8687 7.44547 18.0927 7.44547C16.1004 7.44547 14.5483 8.30039 13.4363 10.0102V10.0564H13.4131L13.4363 10.0102V7.81517H8.29344C8.32432 8.30809 8.33977 9.84078 8.33977 12.4133C8.33977 14.9857 8.32432 18.598 8.29344 23.25Z" fill="#006699"/>
</svg>
