<svg width="34" height="34" viewBox="0 0 34 34" fill="none" xmlns="http://www.w3.org/2000/svg">
<path d="M32.7123 1.29733C31.879 0.445661 30.6457 0.13066 29.4957 0.463994L2.67901 8.21233C1.46568 8.549 0.60568 9.51066 0.374013 10.7307C0.137347 11.974 0.964013 13.554 2.04401 14.214L10.429 19.334C11.289 19.8607 12.399 19.729 13.1107 19.0157L22.7123 9.41399C23.1957 8.91233 23.9957 8.91233 24.479 9.41399C24.9623 9.89566 24.9623 10.6807 24.479 11.1807L14.8607 20.7823C14.1473 21.4957 14.014 22.6023 14.539 23.464L19.6623 31.8807C20.2623 32.879 21.2957 33.4473 22.429 33.4473C22.5623 33.4473 22.7123 33.4473 22.8457 33.429C24.1457 33.264 25.179 32.379 25.5623 31.129L33.5123 4.51399C33.8624 3.38066 33.5457 2.14733 32.7123 1.29733Z" fill="#1777E5"/>
<path opacity="0.4" d="M12.7524 28.9039C13.239 29.3923 13.239 30.184 12.7524 30.6723L10.4757 32.9473C10.2324 33.1923 9.91236 33.3139 9.59236 33.3139C9.27236 33.3139 8.95236 33.1923 8.70903 32.9473C8.2207 32.459 8.2207 31.6689 8.70903 31.1806L10.984 28.9039C11.4724 28.4173 12.264 28.4173 12.7524 28.9039ZM11.4462 22.5906C11.9329 23.0789 11.9329 23.8706 11.4462 24.3589L9.16953 26.6339C8.9262 26.8789 8.6062 27.0006 8.2862 27.0006C7.9662 27.0006 7.6462 26.8789 7.40286 26.6339C6.91453 26.1456 6.91453 25.3556 7.40286 24.8673L9.67786 22.5906C10.1662 22.1039 10.9579 22.1039 11.4462 22.5906ZM5.17753 20.6033C5.6642 21.0916 5.6642 21.8833 5.17753 22.3716L2.90086 24.6466C2.65753 24.8916 2.33753 25.0133 2.01753 25.0133C1.69753 25.0133 1.37753 24.8916 1.13419 24.6466C0.645861 24.1583 0.645861 23.3683 1.13419 22.8799L3.40919 20.6033C3.89753 20.1166 4.6892 20.1166 5.17753 20.6033Z" fill="#1777E5"/>
</svg>
