<svg width="25" height="24" viewBox="0 0 25 24" fill="none" xmlns="http://www.w3.org/2000/svg">
<path d="M8.51138 21.8147C17.5914 21.8147 22.5569 14.2777 22.5569 7.74182C22.5569 7.52777 22.5526 7.3147 22.543 7.10251C23.5091 6.40204 24.343 5.53475 25.0054 4.54129C24.1209 4.93529 23.169 5.20048 22.1705 5.32004C23.1897 4.70773 23.9721 3.73903 24.3413 2.58435C23.3723 3.16031 22.3121 3.56634 21.2066 3.78492C20.3058 2.82352 19.0234 2.22223 17.6033 2.22223C14.8772 2.22223 12.6665 4.43725 12.6665 7.16761C12.6665 7.55578 12.7099 7.93323 12.7946 8.2954C8.69174 8.08855 5.05364 6.12039 2.61884 3.12769C2.18031 3.88251 1.94965 4.74038 1.95042 5.61368C1.95042 7.32969 2.8219 8.84453 4.1472 9.73079C3.36327 9.7068 2.59654 9.49465 1.91149 9.11216C1.91076 9.13293 1.91076 9.15316 1.91076 9.17535C1.91076 11.5707 3.61234 13.5706 5.87113 14.0238C5.4469 14.1396 5.00914 14.1981 4.56944 14.1978C4.25191 14.1978 3.94244 14.1665 3.64168 14.1087C4.27015 16.0739 6.09252 17.504 8.25316 17.544C6.56357 18.8708 4.4352 19.6611 2.12198 19.6611C1.72847 19.6615 1.33528 19.6386 0.944458 19.5926C3.12921 20.9957 5.72339 21.8143 8.51162 21.8143" fill="#1DA1F2"/>
</svg>
