<svg width="24" height="24" viewBox="0 0 24 24" fill="none" xmlns="http://www.w3.org/2000/svg">
<path fill-rule="evenodd" clip-rule="evenodd" d="M9.1054 6.84321C8.88531 6.35387 8.65358 6.34408 8.44419 6.33551C8.27292 6.32817 8.07685 6.32862 7.88109 6.32862C7.68517 6.32862 7.36681 6.40224 7.09758 6.69627C6.8282 6.9903 6.06903 7.70111 6.06903 9.14675C6.06903 10.5925 7.12207 11.9895 7.26885 12.1857C7.41579 12.3817 9.30163 15.4432 12.2883 16.6209C14.7704 17.5998 15.2755 17.4051 15.8143 17.3561C16.353 17.3071 17.5527 16.6454 17.7976 15.9593C18.0425 15.2732 18.0425 14.6852 17.969 14.5623C17.8956 14.4398 17.6996 14.3664 17.4058 14.2194C17.1119 14.0725 15.6673 13.3615 15.398 13.2636C15.1286 13.1656 14.9327 13.1166 14.7367 13.4108C14.5408 13.7047 13.978 14.3664 13.8066 14.5623C13.6352 14.7586 13.4637 14.7831 13.1699 14.6362C12.876 14.4888 11.9296 14.1788 10.807 13.1778C9.93346 12.3991 9.34371 11.4372 9.17229 11.1431C9.00086 10.8492 9.15391 10.69 9.30132 10.5435C9.43325 10.4119 9.59519 10.2005 9.74213 10.0289C9.88875 9.85736 9.93773 9.73491 10.0357 9.53899C10.1336 9.34276 10.0847 9.1712 10.0112 9.02426C9.93773 8.87733 9.36667 7.42422 9.1054 6.84321Z" fill="white"/>
<path fill-rule="evenodd" clip-rule="evenodd" d="M9.1054 6.84321C8.88531 6.35387 8.65358 6.34408 8.44419 6.33551C8.27292 6.32817 8.07685 6.32862 7.88109 6.32862C7.68517 6.32862 7.36681 6.40224 7.09758 6.69627C6.8282 6.9903 6.06903 7.70111 6.06903 9.14675C6.06903 10.5925 7.12207 11.9895 7.26885 12.1857C7.41579 12.3817 9.30163 15.4432 12.2883 16.6209C14.7704 17.5998 15.2755 17.4051 15.8143 17.3561C16.353 17.3071 17.5527 16.6454 17.7976 15.9593C18.0425 15.2732 18.0425 14.6852 17.969 14.5623C17.8956 14.4398 17.6996 14.3664 17.4058 14.2194C17.1119 14.0725 15.6673 13.3615 15.398 13.2636C15.1286 13.1656 14.9327 13.1166 14.7367 13.4108C14.5408 13.7047 13.978 14.3664 13.8066 14.5623C13.6352 14.7586 13.4637 14.7831 13.1699 14.6362C12.876 14.4888 11.9296 14.1788 10.807 13.1778C9.93346 12.3991 9.34371 11.4372 9.17229 11.1431C9.00086 10.8492 9.15391 10.69 9.30132 10.5435C9.43325 10.4119 9.59519 10.2005 9.74213 10.0289C9.88875 9.85736 9.93773 9.73491 10.0357 9.53899C10.1336 9.34276 10.0847 9.1712 10.0112 9.02426C9.93773 8.87733 9.36667 7.42422 9.1054 6.84321Z" fill="url(#paint0_linear_393_11589)"/>
<path d="M20.3633 3.4499C18.1429 1.22794 15.1904 0.00361879 12.0447 0.00222778C5.56245 0.00222778 0.287241 5.27573 0.284635 11.7576C0.283871 13.8296 0.825248 15.8521 1.85426 17.635L0.185913 23.7267L6.42004 22.092C8.13768 23.0287 10.0716 23.5224 12.0396 23.5231H12.0446H12.0447C18.5258 23.5231 23.8018 18.2487 23.8046 11.7671C23.8057 8.62574 22.5835 5.67201 20.3633 3.4499ZM12.0447 21.5377H12.0409C10.2866 21.5367 8.5664 21.0658 7.06595 20.1754L6.70886 19.9638L3.0094 20.9337L3.9971 17.3281L3.76445 16.9584C2.78594 15.4026 2.26937 13.6046 2.27013 11.7584C2.27227 6.37088 6.65682 1.98787 12.0484 1.98787C14.6593 1.98895 17.1131 3.00664 18.9587 4.85346C20.8042 6.70028 21.8197 9.15534 21.8189 11.7664C21.8166 17.154 17.4319 21.5377 12.0447 21.5377Z" fill="white"/>
<path d="M20.3633 3.4499C18.1429 1.22794 15.1904 0.00361879 12.0447 0.00222778C5.56245 0.00222778 0.287241 5.27573 0.284635 11.7576C0.283871 13.8296 0.825248 15.8521 1.85426 17.635L0.185913 23.7267L6.42004 22.092C8.13768 23.0287 10.0716 23.5224 12.0396 23.5231H12.0446H12.0447C18.5258 23.5231 23.8018 18.2487 23.8046 11.7671C23.8057 8.62574 22.5835 5.67201 20.3633 3.4499ZM12.0447 21.5377H12.0409C10.2866 21.5367 8.5664 21.0658 7.06595 20.1754L6.70886 19.9638L3.0094 20.9337L3.9971 17.3281L3.76445 16.9584C2.78594 15.4026 2.26937 13.6046 2.27013 11.7584C2.27227 6.37088 6.65682 1.98787 12.0484 1.98787C14.6593 1.98895 17.1131 3.00664 18.9587 4.85346C20.8042 6.70028 21.8197 9.15534 21.8189 11.7664C21.8166 17.154 17.4319 21.5377 12.0447 21.5377Z" fill="url(#paint1_linear_393_11589)"/>
<defs>
<linearGradient id="paint0_linear_393_11589" x1="12.0404" y1="17.4048" x2="12.0404" y2="6.32863" gradientUnits="userSpaceOnUse">
<stop stop-color="#20B038"/>
<stop offset="1" stop-color="#60D66A"/>
</linearGradient>
<linearGradient id="paint1_linear_393_11589" x1="11.9953" y1="23.7267" x2="11.9953" y2="0.00226738" gradientUnits="userSpaceOnUse">
<stop stop-color="#20B038"/>
<stop offset="1" stop-color="#60D66A"/>
</linearGradient>
</defs>
</svg>
